<svg width="225" height="225" viewBox="0 0 225 225" fill="none" xmlns="http://www.w3.org/2000/svg">
<path d="M27.6 1C12.9726 1 1 12.9726 1 27.6V197.84C1 212.467 12.9726 224.44 27.6 224.44H117.146C117.721 224.535 118.307 224.535 118.882 224.44H149.066C149.641 224.535 150.227 224.535 150.802 224.44H197.84C212.467 224.44 224.44 212.467 224.44 197.84V27.6C224.44 12.9726 212.467 1 197.84 1H27.6ZM27.6 11.64H197.84C206.716 11.64 213.8 18.7237 213.8 27.6V197.84C213.8 206.716 206.716 213.8 197.84 213.8H155.28V139.32H175.604L183.054 102.08H155.28V91.44C155.28 88.4741 155.562 88.2423 156.558 87.5955C157.554 86.9486 160.631 86.12 165.92 86.12H181.88V56.1638L178.846 54.7195C178.846 54.7195 166.626 48.88 149.96 48.88C137.99 48.88 128.156 53.6491 121.864 61.515C115.571 69.3809 112.72 79.9133 112.72 91.44V102.08H96.76V139.32H112.72V213.8H27.6C18.7237 213.8 11.64 206.716 11.64 197.84V27.6C11.64 18.7237 18.7237 11.64 27.6 11.64ZM149.96 59.52C161.021 59.52 167.981 61.959 171.24 63.2502V75.48H165.92C159.798 75.48 154.891 75.9865 150.76 78.6699C146.629 81.3534 144.64 86.4471 144.64 91.44V112.72H170.066L166.876 128.68H144.64V213.8H123.36V128.68H107.4V112.72H123.36V91.44C123.36 81.6867 125.829 73.5991 130.176 68.165C134.524 62.7309 140.65 59.52 149.96 59.52Z" fill="#9E9E9E" stroke="#9E9E9E" stroke-width="0.35"/>
</svg>
