<svg width="206" height="169" viewBox="0 0 206 169" fill="none" xmlns="http://www.w3.org/2000/svg">
<path d="M140.575 1C116.187 1 96.3548 20.7657 96.3548 45.0719C96.3548 46.5325 96.7212 47.9613 96.8646 49.3902C66.7101 46.5166 40.0441 32.0377 21.9323 9.89058C21.0881 8.82689 19.7819 8.25535 18.4119 8.35061C17.0579 8.44586 15.8473 9.22379 15.1782 10.3986C11.3711 16.9237 9.18876 24.433 9.18876 32.4981C9.18876 42.2618 12.6932 51.2 18.1093 58.5348C17.0579 58.0744 15.911 57.8203 14.9234 57.2647C13.6649 56.5979 12.1516 56.6296 10.9251 57.3599C9.6985 58.0902 8.94981 59.4079 8.93388 60.8209V61.3289C8.93388 76.3001 16.7075 89.3025 28.1767 97.2723C28.0493 97.2564 27.9218 97.304 27.7944 97.2723C26.3926 97.0341 24.9749 97.5263 24.035 98.59C23.0952 99.6537 22.7925 101.13 23.2067 102.48C27.7625 116.593 39.391 127.373 53.7913 131.311C42.3221 138.105 29.021 142.106 14.6685 142.106C11.5622 142.106 8.58344 141.947 5.62055 141.598C3.70902 141.344 1.87712 142.456 1.23995 144.265C0.586839 146.075 1.30367 148.092 2.9444 149.092C21.3429 160.856 43.1823 167.762 66.6623 167.762C104.718 167.762 134.57 151.918 154.593 129.278C174.616 106.639 185.05 77.2367 185.05 49.7712C185.05 48.6122 184.955 47.485 184.923 46.342C192.394 40.6425 199.068 33.9587 204.293 26.1476C205.328 24.6394 205.217 22.6232 204.022 21.2261C202.843 19.829 200.852 19.4003 199.196 20.1783C197.093 21.1149 194.64 21.2102 192.441 21.9564C195.341 18.0985 197.826 13.939 199.323 9.25554C199.833 7.65206 199.275 5.88982 197.953 4.842C196.631 3.81006 194.783 3.68305 193.333 4.55623C186.372 8.66813 178.662 11.5576 170.522 13.3198C162.621 5.95332 152.22 1 140.575 1ZM140.575 9.12853C150.977 9.12853 160.375 13.5579 166.954 20.5593C167.942 21.5753 169.391 22.004 170.777 21.7024C176.098 20.6545 181.147 19.1146 186.07 17.1301C183.234 20.9403 179.73 24.1949 175.62 26.6557C173.756 27.5606 172.88 29.7039 173.565 31.6566C174.234 33.5935 176.273 34.7207 178.296 34.2762C182.374 33.784 186.006 32.1329 189.893 31.101C186.404 34.8636 182.581 38.2611 178.423 41.2616C177.292 42.0872 176.671 43.4208 176.767 44.8179C176.831 46.469 176.894 48.1042 176.894 49.7712C176.894 75.1729 167.114 102.75 148.476 123.817C129.839 144.885 102.472 159.633 66.6623 159.633C50.3983 159.633 35.0423 156.045 21.1677 149.727C38.3716 148.409 54.2373 142.344 67.0446 132.327C68.3827 131.263 68.9083 129.485 68.3667 127.865C67.8251 126.246 66.3278 125.135 64.6233 125.087C51.1788 124.849 39.9167 117.054 33.9113 106.036C34.1343 106.036 34.3255 106.036 34.5485 106.036C38.5786 106.036 42.561 105.528 46.2726 104.512C48.0567 103.988 49.2832 102.337 49.2195 100.479C49.1558 98.6218 47.8337 97.0342 46.0177 96.6373C31.5059 93.7161 20.6261 81.9361 18.1093 67.2983C22.2191 68.7113 26.4244 69.8226 30.9803 69.9655C32.844 70.0766 34.5325 68.9177 35.106 67.1555C35.6795 65.3932 34.9786 63.4563 33.4016 62.472C23.7164 56.0105 17.3446 45.0084 17.3446 32.4981C17.3446 27.8623 18.5553 23.6075 20.1482 19.5432C40.538 41.849 69.0836 56.6614 101.325 58.2808C102.599 58.3443 103.842 57.8203 104.67 56.8519C105.498 55.8676 105.817 54.5658 105.53 53.3274C104.909 50.692 104.511 47.8978 104.511 45.0719C104.511 25.1633 120.6 9.12853 140.575 9.12853Z" fill="#9E9E9E" stroke="#9E9E9E" stroke-width="0.6"/>
</svg>
