<svg width="378" height="184" viewBox="0 0 378 184" fill="none" xmlns="http://www.w3.org/2000/svg">
<path d="M14 92L5.99074 85.2102L0.234683 92L5.99074 98.7898L14 92ZM363.509 92L371.519 98.7898L377.275 92L371.519 85.2102L363.509 92ZM22.0093 98.7898C62.1053 51.4927 121.922 21.5 188.755 21.5V0.5C115.493 0.5 49.9063 33.4075 5.99074 85.2102L22.0093 98.7898ZM188.755 21.5C255.587 21.5 315.404 51.4927 355.5 98.7898L371.519 85.2102C327.603 33.4075 262.016 0.5 188.755 0.5V21.5ZM355.5 85.2102C315.404 132.507 255.587 162.5 188.755 162.5V183.5C262.016 183.5 327.603 150.592 371.519 98.7898L355.5 85.2102ZM188.755 162.5C121.922 162.5 62.1053 132.507 22.0093 85.2102L5.99074 98.7898C49.9063 150.592 115.493 183.5 188.755 183.5V162.5Z" fill="white"/>
<circle cx="188.755" cy="85" r="55" stroke="white" stroke-width="21"/>
</svg>
